<?xml version="1.0" ?><svg enable-background="new 0 0 200 200" id="Layer_1" version="1.1" viewBox="0 0 200 200" xml:space="preserve" xmlns="http://www.w3.org/2000/svg" xmlns:xlink="http://www.w3.org/1999/xlink"><g><path d="M172.393,96.26c-2.602-7.876-7.033-15.297-12.526-20.935c0.95-1.77,1.454-3.758,1.454-5.825   c0-6.793-5.527-12.32-12.32-12.32c-0.464,0-0.924,0.025-1.38,0.077c-1.436-5.209-6.223-9.047-11.89-9.047   c-1.56,0-3.082,0.298-4.489,0.849c-2.054-3.351-4.453-6.452-7.1-9.163c0.948-1.771,1.451-3.76,1.451-5.823   c0-6.797-5.522-12.327-12.312-12.327c-0.467,0-0.933,0.026-1.394,0.079c-1.436-5.203-6.221-9.036-11.888-9.036   c-5.659,0-10.438,3.833-11.872,9.036c-0.456-0.053-0.916-0.079-1.377-0.079c-6.797,0-12.327,5.53-12.327,12.327   c0,2.066,0.504,4.054,1.455,5.823c-2.636,2.692-5.037,5.794-7.103,9.167c-1.416-0.555-2.941-0.852-4.506-0.852   c-5.655,0-10.431,3.839-11.863,9.05c-0.459-0.053-0.922-0.08-1.387-0.08c-6.799,0-12.33,5.527-12.33,12.32   c0,2.059,0.507,4.046,1.461,5.819c-5.504,5.629-9.942,13.059-12.546,20.953c-8.784,3.462-13.066,7.558-13.066,12.497v28.58v27.761   c0,5.691,5.695,10.287,17.408,14.052c4.854,1.563,10.648,2.938,17.211,4.084c5.245,0.931,10.964,1.713,16.997,2.326   c5.502,0.56,11.202,0.978,16.936,1.244c5.44,0.261,11.129,0.394,16.908,0.394c5.789,0,11.478-0.133,16.902-0.394   c5.751-0.267,11.451-0.685,16.941-1.244c6.032-0.613,11.751-1.396,16.989-2.324c6.571-1.149,12.365-2.523,17.214-4.084   c11.717-3.749,17.413-8.346,17.413-14.054V137.35v-28.58C185.46,103.813,181.178,99.713,172.393,96.26z M128.938,64.921   c1.139-0.737,1.748-2.066,1.564-3.41c-0.025-0.184-0.043-0.352-0.057-0.509c-0.01-0.116-0.015-0.232-0.018-0.346   c-0.001-0.043-0.006-0.094-0.006-0.134c0-0.455,0.062-0.896,0.17-1.32c0.264-1.028,0.835-1.956,1.704-2.704   c0.927-0.83,2.147-1.287,3.436-1.287c2.938,0,5.329,2.382,5.329,5.31c0,0.255-0.026,0.548-0.073,0.805   c-0.245,1.345,0.316,2.709,1.437,3.493c1.12,0.785,2.593,0.842,3.774,0.154c0.897-0.525,1.841-0.792,2.803-0.792   c2.934,0,5.32,2.387,5.32,5.32c0,1.425-0.553,2.763-1.556,3.767c-0.681,0.681-1.051,1.612-1.022,2.575   c0.027,0.963,0.451,1.872,1.171,2.513c6.007,5.349,10.861,13.211,13.321,21.581c1.139,3.839,1.716,7.615,1.716,11.225   c0,0.697-0.03,1.373-0.074,2.039c-0.012,0.187-0.029,0.37-0.045,0.554c-0.045,0.519-0.103,1.027-0.175,1.524   c-0.015,0.104-0.028,0.21-0.044,0.313c-0.065,0.023-0.131,0.045-0.196,0.068c-0.746,0.258-1.515,0.512-2.314,0.76   c-0.1,0.031-0.204,0.062-0.305,0.093c-0.831,0.254-1.684,0.504-2.569,0.747c-0.063,0.017-0.129,0.034-0.192,0.051   c-0.925,0.252-1.876,0.499-2.857,0.739c-0.008,0.002-0.016,0.004-0.024,0.006c-0.981,0.239-1.993,0.471-3.027,0.698   c-0.081,0.018-0.161,0.036-0.242,0.054c-0.144,0.031-0.297,0.06-0.441,0.091c2.072-2.603,3.2-5.895,3.2-9.751   c0-1.933-1.567-3.5-3.5-3.5s-3.5,1.567-3.5,3.5c0,7.729-7.063,9.352-12.987,9.352c-1.933,0-3.5,1.567-3.5,3.5   c0,0.018,0.005,0.035,0.005,0.053c-3.26,0.355-6.62,0.667-10.086,0.922c-0.056,0.004-0.112,0.009-0.168,0.013   c-1.377,0.101-2.77,0.192-4.175,0.276c-0.103,0.006-0.206,0.013-0.309,0.019c-1.381,0.081-2.775,0.154-4.18,0.219   c-0.125,0.006-0.25,0.012-0.376,0.017c-1.398,0.063-2.807,0.118-4.226,0.165c-0.129,0.004-0.259,0.008-0.388,0.012   c-1.425,0.045-2.859,0.083-4.302,0.111c-0.044,0.001-0.088,0.001-0.132,0.002c-0.005-0.009-0.012-0.017-0.018-0.025   c-0.034-0.053-0.062-0.111-0.095-0.164c-0.258-0.419-0.503-0.847-0.73-1.287c-0.082-0.16-0.155-0.327-0.233-0.489   c-0.166-0.343-0.327-0.689-0.474-1.045c-0.081-0.196-0.154-0.397-0.23-0.597c-0.127-0.336-0.249-0.675-0.36-1.021   c-0.07-0.216-0.135-0.436-0.198-0.656c-0.099-0.345-0.19-0.695-0.274-1.049c-0.054-0.228-0.107-0.457-0.155-0.689   c-0.076-0.367-0.14-0.741-0.2-1.118c-0.036-0.228-0.076-0.454-0.106-0.686c-0.055-0.415-0.094-0.84-0.13-1.267   c-0.017-0.204-0.041-0.403-0.055-0.61c-0.04-0.636-0.064-1.283-0.064-1.944c0-2.208,0.231-4.541,0.687-6.928   c0.101-0.521,0.21-1.043,0.349-1.631c0.067-0.321,0.134-0.616,0.241-1.027c0.039-0.167,0.088-0.332,0.13-0.497   c0.082-0.317,0.161-0.633,0.255-0.954c0.01-0.032,0.018-0.065,0.026-0.098h0c0.155-0.548,0.336-1.091,0.515-1.631l0.507-1.445   c0.033-0.092,0.065-0.177,0.105-0.274c0.009-0.022,0.016-0.045,0.025-0.068c0.01-0.026,0.022-0.051,0.032-0.078   c0.026-0.073,0.053-0.148,0.081-0.225c0.015-0.04,0.03-0.081,0.045-0.121c0.031-0.082,0.062-0.165,0.101-0.262   c0.249-0.645,0.529-1.309,0.87-2.063c0.011-0.026,0.025-0.054,0.036-0.08c0.224-0.523,0.476-1.057,0.744-1.591   c0.041-0.083,0.076-0.158,0.119-0.243c0.004-0.007,0.006-0.014,0.01-0.021c0.014-0.025,0.026-0.051,0.04-0.076   c0.015-0.029,0.035-0.054,0.049-0.083l0.156-0.319c0.023-0.042,0.046-0.086,0.068-0.129c0.035-0.07,0.07-0.134,0.105-0.198   c0.022-0.04,0.044-0.079,0.071-0.128c0.014-0.024,0.037-0.069,0.051-0.095c0.085-0.162,0.174-0.319,0.26-0.479   c0.072-0.133,0.141-0.27,0.22-0.399c0.03-0.051,0.061-0.103,0.089-0.154c0.341-0.627,0.7-1.225,1.076-1.854   c0.001-0.001,0.001-0.003,0.002-0.004c0.079-0.127,0.162-0.251,0.242-0.378c0.491-0.779,0.997-1.54,1.52-2.274   c0.111-0.155,0.227-0.305,0.34-0.459c0.469-0.64,0.949-1.263,1.442-1.867c0.177-0.217,0.357-0.429,0.536-0.642   c0.508-0.599,1.025-1.183,1.557-1.742c0.124-0.131,0.249-0.26,0.374-0.389c0.638-0.654,1.287-1.287,1.956-1.883   c0.008-0.007,0.016-0.015,0.023-0.022c0.717-0.639,1.14-1.544,1.169-2.503c0.03-0.96-0.335-1.89-1.011-2.571   c-0.5-0.505-0.887-1.092-1.151-1.73c-0.263-0.641-0.4-1.333-0.4-2.045c0-1.833,0.93-3.452,2.341-4.409   c0.847-0.572,1.867-0.907,2.965-0.907c0.403,0,0.792,0.055,1.171,0.142c0.444,0.104,0.872,0.268,1.28,0.487   c0.089,0.049,0.182,0.088,0.269,0.143C126.338,65.674,127.801,65.66,128.938,64.921z M82.832,42.933   c0.722-0.641,1.147-1.55,1.176-2.515c0.028-0.964-0.342-1.897-1.024-2.579c-1.005-1.005-1.559-2.343-1.559-3.767   c0-2.938,2.39-5.327,5.327-5.327c0.97,0,1.891,0.264,2.736,0.783c1.172,0.72,2.657,0.688,3.795-0.085   c1.139-0.771,1.72-2.139,1.485-3.494c-0.053-0.308-0.079-0.592-0.079-0.866c0-2.92,2.382-5.295,5.311-5.295   c2.938,0,5.327,2.375,5.327,5.295c0,0.272-0.025,0.576-0.079,0.955c-0.189,1.341,0.411,2.671,1.542,3.415   c1.132,0.745,2.591,0.77,3.745,0.064c0.83-0.505,1.779-0.772,2.746-0.772c2.929,0,5.312,2.39,5.312,5.327   c0,1.425-0.553,2.767-1.556,3.778c-0.675,0.682-1.041,1.61-1.012,2.569c0.028,0.958,0.449,1.863,1.164,2.503   c3.243,2.901,6.152,6.494,8.504,10.487c-0.043,0.06-0.079,0.125-0.121,0.186c-0.132,0.192-0.259,0.386-0.38,0.585   c-0.061,0.1-0.118,0.201-0.176,0.303c-0.11,0.194-0.214,0.391-0.313,0.591c-0.051,0.102-0.102,0.204-0.15,0.307   c-0.102,0.221-0.196,0.447-0.285,0.674c-0.032,0.083-0.068,0.164-0.098,0.247c-0.115,0.315-0.221,0.633-0.31,0.957   c-0.46-0.053-0.925-0.08-1.391-0.08c-2.546,0-4.914,0.778-6.879,2.108c-3.277,2.214-5.435,5.963-5.435,10.207   c0,1.917,0.451,3.762,1.273,5.436c0.062,0.126,0.108,0.258,0.174,0.382c-2.211,2.262-4.238,4.818-6.079,7.607   c-0.842,0.081-1.701,0.137-2.589,0.137c-1.933,0-3.5,1.567-3.5,3.5c0,1.468,0.906,2.72,2.187,3.24   c-0.208,0.436-0.404,0.865-0.572,1.263c-0.022,0.048-0.041,0.101-0.063,0.149c-0.331,0.735-0.641,1.468-0.902,2.146   c0,0.001,0,0.001-0.001,0.002c-0.01,0.027-0.022,0.051-0.032,0.077l-0.046,0.122c-0.027-0.073-0.056-0.143-0.083-0.216   c-0.006-0.017-0.012-0.033-0.019-0.05c-0.007-0.017-0.018-0.045-0.027-0.069c-0.004-0.009-0.007-0.018-0.01-0.027   c-0.176-0.438-0.355-0.873-0.537-1.301c-0.13-0.306-0.252-0.579-0.375-0.852c-0.057-0.127-0.112-0.26-0.169-0.385   c-0.301-0.688-0.608-1.331-0.917-1.935c-0.018-0.034-0.033-0.072-0.05-0.106c-0.034-0.066-0.072-0.134-0.106-0.2   c-0.356-0.703-0.727-1.401-1.135-2.141c-0.018-0.031-0.038-0.064-0.057-0.095c-0.33-0.582-0.686-1.196-1.084-1.815   c-0.008-0.013-0.015-0.025-0.023-0.038c-0.024-0.039-0.049-0.078-0.073-0.117c-0.231-0.383-0.485-0.778-0.755-1.184   c-0.113-0.172-0.226-0.35-0.336-0.51c-0.341-0.521-0.726-1.065-1.175-1.661c-0.028-0.04-0.058-0.075-0.086-0.114   c-0.182-0.259-0.397-0.557-0.659-0.877c-0.048-0.064-0.108-0.14-0.159-0.207c-0.335-0.443-0.708-0.924-1.141-1.419   c-0.003-0.003-0.006-0.007-0.009-0.01c-0.486-0.6-0.908-1.093-1.316-1.535c-0.053-0.061-0.112-0.125-0.178-0.197   c-0.052-0.063-0.106-0.123-0.162-0.182l-0.212-0.224l-0.272-0.294c-0.152-0.163-0.305-0.318-0.462-0.472   c0.955-1.773,1.462-3.762,1.462-5.821c0-6.793-5.531-12.32-12.33-12.32c-0.464,0-0.928,0.026-1.388,0.079   c-0.187-0.682-0.438-1.34-0.736-1.975c-0.011-0.024-0.023-0.048-0.035-0.072c-0.144-0.3-0.299-0.594-0.467-0.881   c-0.008-0.014-0.016-0.028-0.024-0.041c-0.178-0.303-0.368-0.599-0.572-0.885C76.701,49.379,79.611,45.791,82.832,42.933z    M33.769,99.936c2.461-8.385,7.321-16.249,13.333-21.575c0.721-0.639,1.146-1.547,1.177-2.509c0.031-0.963-0.336-1.896-1.015-2.578   c-1.015-1.021-1.573-2.361-1.573-3.773c0-2.934,2.391-5.32,5.33-5.32c0.968,0,1.891,0.265,2.742,0.786   c1.17,0.716,2.652,0.683,3.79-0.087c1.137-0.77,1.719-2.132,1.488-3.485c-0.046-0.271-0.07-0.573-0.07-0.874   c0-2.928,2.378-5.31,5.3-5.31c1.298,0,2.521,0.455,3.504,1.331c0.003,0.003,0.006,0.007,0.009,0.01   c1.168,0.997,1.812,2.407,1.812,3.971c0,0.089-0.002,0.164-0.005,0.237c-0.002,0.035-0.002,0.071-0.004,0.106   c-0.002,0.043-0.005,0.082-0.008,0.119c-0.011,0.122-0.024,0.24-0.042,0.341c-0.228,1.255,0.251,2.519,1.224,3.32   c0.074,0.061,0.144,0.125,0.223,0.181c1.128,0.786,2.613,0.837,3.794,0.131c0.845-0.505,1.803-0.771,2.772-0.771   c2.938,0,5.328,2.382,5.328,5.311c0,1.413-0.559,2.756-1.572,3.78c-0.138,0.139-0.253,0.294-0.365,0.452   c-0.297,0.42-0.504,0.894-0.594,1.399c0,0.003-0.002,0.005-0.002,0.008c-0.039,0.223-0.054,0.452-0.049,0.682   c0,0.01-0.002,0.019-0.002,0.028c0,0,0,0,0,0.001c0,0.008-0.002,0.016-0.002,0.024c0.008,0.225,0.043,0.446,0.093,0.662   c0.002,0.007,0.001,0.014,0.003,0.021c0.052,0.217,0.128,0.427,0.219,0.629c0.005,0.012,0.008,0.026,0.013,0.038   c0.09,0.192,0.202,0.373,0.326,0.547c0.014,0.019,0.023,0.041,0.037,0.06c0.121,0.163,0.263,0.31,0.412,0.451   c0.024,0.022,0.041,0.05,0.066,0.072c0.005,0.004,0.009,0.009,0.014,0.013c0.007,0.006,0.012,0.015,0.02,0.021   c0.399,0.347,0.79,0.722,1.171,1.104c0.047,0.047,0.095,0.092,0.145,0.136c0.091,0.082,0.173,0.166,0.258,0.255   c0.06,0.065,0.122,0.13,0.188,0.191c0.043,0.046,0.088,0.091,0.134,0.135c0.223,0.213,0.43,0.434,0.639,0.655l0.05,0.052l0.13,0.14   c0.064,0.074,0.135,0.151,0.214,0.235c0.021,0.024,0.042,0.049,0.063,0.072c0.404,0.45,0.79,0.9,1.166,1.359   c0.011,0.014,0.023,0.027,0.034,0.041c0.012,0.014,0.023,0.028,0.035,0.041c0.17,0.195,0.308,0.386,0.464,0.583   c0.2,0.252,0.409,0.501,0.594,0.747c0.033,0.044,0.068,0.088,0.103,0.13c0.052,0.063,0.096,0.13,0.145,0.193   c0.113,0.148,0.226,0.294,0.332,0.449c0.036,0.052,0.072,0.103,0.111,0.152c0.318,0.414,0.629,0.853,0.962,1.359   c0.348,0.508,0.682,1.014,1.001,1.551c0.017,0.029,0.035,0.057,0.054,0.086c0.023,0.039,0.047,0.077,0.07,0.116   c0.329,0.514,0.636,1.04,0.917,1.538c0.348,0.637,0.695,1.291,1.032,1.949c0.028,0.055,0.056,0.107,0.084,0.163   c0.135,0.262,0.266,0.527,0.397,0.802c0.136,0.287,0.272,0.585,0.411,0.904c0.015,0.032,0.028,0.064,0.042,0.096   c0.32,0.707,0.62,1.414,0.909,2.131c0.003,0.007,0.005,0.013,0.008,0.02c0.147,0.393,0.294,0.782,0.41,1.074   c0.036,0.1,0.076,0.213,0.115,0.321c0.129,0.364,0.256,0.725,0.371,1.07c0.001,0.004,0.003,0.008,0.004,0.013   c0.142,0.428,0.272,0.841,0.39,1.235c0.007,0.023,0.015,0.046,0.022,0.069c0.004,0.013,0.008,0.027,0.013,0.04   c0.076,0.228,0.14,0.461,0.205,0.693l0.101,0.354c0.021,0.105,0.046,0.209,0.076,0.312c0.065,0.222,0.118,0.454,0.17,0.68   l0.041,0.174c0.01,0.041,0.021,0.082,0.032,0.123c0.06,0.219,0.112,0.445,0.179,0.759c0.119,0.503,0.229,1.025,0.329,1.548   c0.015,0.078,0.036,0.153,0.056,0.229c0.06,0.338,0.112,0.672,0.163,1.006c0.034,0.219,0.072,0.441,0.102,0.658   c0.049,0.358,0.087,0.71,0.127,1.063c0.025,0.223,0.055,0.448,0.076,0.669c0.035,0.373,0.058,0.738,0.081,1.103   c0.012,0.191,0.031,0.387,0.041,0.576c0.027,0.55,0.041,1.092,0.041,1.624c0,0.661-0.024,1.307-0.064,1.943   c-0.013,0.209-0.038,0.412-0.055,0.618c-0.036,0.422-0.075,0.842-0.129,1.253c-0.031,0.239-0.072,0.471-0.109,0.706   c-0.059,0.369-0.122,0.735-0.195,1.095c-0.049,0.24-0.104,0.476-0.16,0.712c-0.082,0.345-0.17,0.685-0.267,1.02   c-0.066,0.23-0.134,0.46-0.207,0.686c-0.107,0.332-0.224,0.658-0.346,0.981c-0.08,0.213-0.159,0.428-0.245,0.637   c-0.139,0.335-0.292,0.661-0.448,0.986c-0.087,0.182-0.168,0.368-0.26,0.546c-0.207,0.4-0.431,0.787-0.663,1.169   c-0.056,0.092-0.105,0.189-0.162,0.28c-0.003,0.005-0.007,0.01-0.01,0.015c-0.065-0.001-0.13-0.002-0.195-0.003   c-1.379-0.028-2.749-0.064-4.111-0.107c-0.207-0.006-0.413-0.013-0.619-0.02c-1.341-0.045-2.672-0.097-3.993-0.156   c-0.215-0.01-0.429-0.02-0.643-0.03c-1.318-0.062-2.626-0.13-3.923-0.206c-0.199-0.012-0.396-0.024-0.595-0.036   c-0.217-0.013-0.429-0.029-0.645-0.043c5.549-2.674,8.736-7.57,8.736-14.062c0-1.933-1.567-3.5-3.5-3.5s-3.5,1.567-3.5,3.5   c0,7.729-7.063,9.352-12.987,9.352c-1.909,0-3.454,1.53-3.493,3.429c-0.339-0.038-0.687-0.073-1.024-0.113   c-0.133-0.016-0.268-0.031-0.401-0.046c-1.194-0.142-2.368-0.292-3.528-0.447c-0.169-0.023-0.339-0.045-0.507-0.068   c-1.134-0.154-2.25-0.316-3.348-0.482c-0.176-0.027-0.352-0.053-0.527-0.081c-1.088-0.168-2.159-0.342-3.209-0.522   c-0.167-0.029-0.332-0.058-0.498-0.086c-1.053-0.183-2.088-0.372-3.1-0.568c-0.14-0.027-0.278-0.055-0.417-0.082   c-1.032-0.202-2.045-0.409-3.032-0.623c-0.088-0.019-0.174-0.039-0.262-0.058c-1.029-0.225-2.036-0.456-3.012-0.694   c-0.01-0.003-0.02-0.005-0.03-0.008c-0.981-0.24-1.932-0.487-2.857-0.739c-0.061-0.017-0.125-0.033-0.186-0.05   c-0.888-0.244-1.745-0.495-2.579-0.75c-0.097-0.03-0.197-0.059-0.293-0.089c-0.803-0.249-1.577-0.504-2.326-0.764   c-0.063-0.022-0.125-0.043-0.188-0.065c-0.017-0.109-0.031-0.222-0.047-0.332c-0.07-0.489-0.128-0.989-0.172-1.499   c-0.016-0.188-0.033-0.375-0.046-0.566c-0.044-0.664-0.074-1.339-0.074-2.034C32.05,107.558,32.627,103.785,33.769,99.936z    M25.504,104.972c-0.035,0.239-0.06,0.477-0.091,0.715c-0.031,0.241-0.065,0.483-0.092,0.724c-0.035,0.316-0.062,0.631-0.091,0.946   c-0.019,0.216-0.043,0.432-0.059,0.647c-0.027,0.354-0.044,0.705-0.061,1.057c-0.009,0.176-0.023,0.353-0.029,0.528   c-0.02,0.526-0.031,1.05-0.031,1.572c0,0.388,0.006,0.774,0.017,1.156c-0.057-0.034-0.111-0.068-0.166-0.102   c-0.214-0.132-0.416-0.262-0.606-0.39c-0.078-0.053-0.159-0.106-0.234-0.158c-0.237-0.165-0.46-0.328-0.659-0.484   c-0.007-0.005-0.015-0.011-0.022-0.016c-0.205-0.162-0.384-0.317-0.55-0.469c-0.051-0.047-0.098-0.092-0.146-0.138   c-0.113-0.107-0.216-0.212-0.31-0.313c-0.039-0.042-0.08-0.085-0.116-0.126c-0.115-0.131-0.218-0.257-0.303-0.375   c-0.003-0.004-0.006-0.008-0.009-0.012c-0.086-0.121-0.153-0.233-0.21-0.34c-0.017-0.033-0.031-0.063-0.046-0.094   c-0.036-0.076-0.065-0.147-0.087-0.214c-0.009-0.027-0.019-0.055-0.026-0.08c-0.022-0.086-0.037-0.166-0.037-0.235   C21.54,108.104,22.484,106.697,25.504,104.972z M29.52,170.84c-6.186-2.542-7.98-4.774-7.98-5.73v-18.158   c0.362,0.216,0.741,0.43,1.132,0.641c0.074,0.04,0.154,0.08,0.23,0.12c0.381,0.203,0.776,0.404,1.183,0.602   c0.139,0.068,0.28,0.136,0.423,0.203c0.412,0.195,0.837,0.389,1.276,0.581c0.093,0.041,0.182,0.082,0.276,0.122   c0.529,0.228,1.079,0.452,1.646,0.674c0.143,0.056,0.292,0.112,0.438,0.167c0.448,0.172,0.907,0.342,1.378,0.511V170.84z    M46.27,175.581c-3.557-0.714-6.816-1.499-9.75-2.347V152.74c2.988,0.802,6.246,1.543,9.75,2.215V175.581z M63.01,178.184   c-3.382-0.395-6.632-0.847-9.74-1.349v-20.665c3.108,0.484,6.373,0.914,9.74,1.297V178.184z M79.76,179.63   c-3.288-0.191-6.545-0.435-9.75-0.725v-20.728c3.208,0.283,6.468,0.516,9.75,0.703V179.63z M96.5,180.188   c-3.288-0.031-6.55-0.107-9.74-0.226v-20.753c3.187,0.117,6.443,0.19,9.74,0.221V180.188z M113.24,179.963   c-3.185,0.119-6.448,0.194-9.74,0.226V159.43c3.302-0.031,6.558-0.104,9.74-0.221V179.963z M129.99,178.905   c-3.2,0.29-6.457,0.533-9.75,0.725v-20.75c3.287-0.187,6.547-0.419,9.75-0.703V178.905z M146.73,176.835   c-3.106,0.502-6.357,0.954-9.74,1.349v-20.718c3.368-0.383,6.633-0.813,9.74-1.297V176.835z M163.48,173.234   c-2.933,0.848-6.191,1.633-9.75,2.347v-20.627c3.506-0.673,6.763-1.413,9.75-2.215V173.234z M178.46,165.11   c0,0.962-1.793,3.2-7.979,5.736v-20.271c0.484-0.173,0.957-0.348,1.417-0.525c0.125-0.048,0.254-0.096,0.378-0.144   c0.579-0.227,1.141-0.456,1.682-0.688c0.071-0.031,0.138-0.062,0.208-0.093c0.463-0.201,0.91-0.405,1.344-0.611   c0.133-0.063,0.264-0.126,0.394-0.19c0.413-0.201,0.814-0.405,1.2-0.611c0.074-0.039,0.152-0.078,0.225-0.118   c0.391-0.212,0.77-0.426,1.132-0.642V165.11z M178.46,137.35c0,1.162-2.623,4.201-12.552,7.389   c-4.549,1.465-10.026,2.761-16.289,3.855c-5.064,0.898-10.61,1.657-16.483,2.254c-5.364,0.547-10.935,0.956-16.563,1.217   c-10.629,0.512-22.472,0.513-33.15,0c-5.612-0.261-11.183-0.67-16.558-1.217c-5.875-0.598-11.42-1.355-16.491-2.256   c-4.691-0.82-8.944-1.753-12.698-2.787c-1.251-0.344-2.447-0.7-3.584-1.066c-9.928-3.19-12.551-6.229-12.551-7.389v-18.972   c0.087,0.052,0.185,0.102,0.274,0.153c0.257,0.15,0.523,0.298,0.794,0.445c0.194,0.105,0.386,0.211,0.587,0.316   c0.294,0.153,0.601,0.304,0.91,0.455c0.198,0.096,0.391,0.193,0.595,0.289c0.35,0.164,0.717,0.325,1.086,0.487   c0.181,0.079,0.355,0.16,0.54,0.238c0.534,0.226,1.086,0.449,1.657,0.67c0.031,0.012,0.058,0.024,0.089,0.036   c1.333,0.513,2.76,1.009,4.275,1.487c14.648,4.617,37.525,7.528,62.583,7.886c0.01,0,0.02,0,0.029,0l1.673,0.013   c1.114,0.009,2.238,0.018,3.367,0.018s2.254-0.009,3.367-0.018l1.702-0.013c1.728-0.025,3.446-0.062,5.151-0.11   c1.706-0.049,3.399-0.109,5.077-0.181c0.839-0.036,1.675-0.075,2.507-0.117c2.496-0.125,4.957-0.277,7.377-0.453   c0.807-0.059,1.609-0.12,2.406-0.184c18.338-1.476,34.123-4.393,44.339-8.327c0.002-0.001,0.004-0.002,0.006-0.003   c0.6-0.231,1.177-0.465,1.737-0.701c0.19-0.08,0.367-0.162,0.552-0.243c0.366-0.16,0.73-0.32,1.077-0.482   c0.202-0.094,0.393-0.19,0.589-0.286c0.314-0.153,0.625-0.306,0.923-0.461c0.192-0.1,0.377-0.201,0.563-0.302   c0.282-0.154,0.56-0.308,0.827-0.464c0.083-0.049,0.176-0.096,0.258-0.145V137.35z M178.423,109.006   c-0.007,0.025-0.017,0.052-0.025,0.079c-0.022,0.068-0.052,0.141-0.088,0.217c-0.014,0.03-0.028,0.06-0.045,0.091   c-0.115,0.216-0.287,0.462-0.526,0.734c-0.033,0.037-0.07,0.076-0.106,0.115c-0.098,0.106-0.207,0.216-0.325,0.328   c-0.044,0.042-0.086,0.083-0.133,0.125c-0.334,0.304-0.745,0.631-1.241,0.977c-0.07,0.049-0.147,0.099-0.221,0.149   c-0.193,0.13-0.4,0.263-0.619,0.398c-0.053,0.033-0.107,0.066-0.161,0.099c0.012-0.383,0.018-0.769,0.018-1.158   c0-0.523-0.011-1.048-0.031-1.576c-0.007-0.175-0.02-0.352-0.029-0.527c-0.018-0.352-0.035-0.703-0.061-1.057   c-0.017-0.221-0.041-0.443-0.061-0.665c-0.028-0.311-0.055-0.621-0.09-0.933c-0.027-0.243-0.061-0.486-0.093-0.729   c-0.031-0.239-0.056-0.477-0.091-0.716c3.021,1.728,3.965,3.142,3.965,3.813C178.46,108.839,178.445,108.92,178.423,109.006z" fill="#1D1D1B"/><path d="M91.854,52.007c0.169,0.024,0.338,0.036,0.504,0.036c1.711,0,3.208-1.257,3.46-3l1.378-9.548   c0.276-1.913-1.051-3.688-2.964-3.964c-1.913-0.278-3.688,1.051-3.964,2.964l-1.378,9.548   C88.614,49.956,89.941,51.731,91.854,52.007z" fill="#1D1D1B"/><path d="M102.719,49.043c0.251,1.744,1.748,3,3.46,3c0.166,0,0.334-0.012,0.504-0.036   c1.913-0.275,3.24-2.051,2.964-3.964l-1.378-9.548c-0.275-1.913-2.045-3.239-3.964-2.964c-1.913,0.275-3.24,2.051-2.964,3.964   L102.719,49.043z" fill="#1D1D1B"/><path d="M128.309,88.846c0.17,0.024,0.338,0.036,0.504,0.036c1.712,0,3.209-1.257,3.46-3l1.378-9.548   c0.276-1.913-1.051-3.688-2.964-3.964c-1.921-0.277-3.688,1.052-3.964,2.964l-1.378,9.548   C125.068,86.795,126.396,88.57,128.309,88.846z" fill="#1D1D1B"/><path d="M139.174,85.882c0.251,1.744,1.748,3,3.46,3c0.166,0,0.334-0.012,0.504-0.036   c1.913-0.275,3.24-2.051,2.964-3.964l-1.378-9.548c-0.275-1.913-2.04-3.243-3.964-2.964c-1.913,0.275-3.24,2.051-2.964,3.964   L139.174,85.882z" fill="#1D1D1B"/><path d="M56.862,88.846c0.169,0.024,0.338,0.036,0.504,0.036c1.711,0,3.208-1.257,3.46-3l1.378-9.548   c0.276-1.913-1.051-3.688-2.964-3.964c-1.913-0.274-3.688,1.051-3.964,2.964l-1.378,9.548   C53.622,86.795,54.949,88.57,56.862,88.846z" fill="#1D1D1B"/><path d="M67.727,85.882c0.252,1.743,1.749,3,3.46,3c0.167,0,0.335-0.012,0.504-0.036   c1.913-0.275,3.24-2.051,2.964-3.964l-1.377-9.548c-0.276-1.912-2.052-3.234-3.964-2.964c-1.913,0.275-3.24,2.051-2.964,3.964   L67.727,85.882z" fill="#1D1D1B"/></g></svg>