<?xml version="1.0" ?><!DOCTYPE svg  PUBLIC '-//W3C//DTD SVG 1.1//EN'  'http://www.w3.org/Graphics/SVG/1.1/DTD/svg11.dtd'><svg height="100px" style="enable-background:new 0 0 100 100;" version="1.1" viewBox="0 0 100 100" width="100px" xml:space="preserve" xmlns="http://www.w3.org/2000/svg" xmlns:xlink="http://www.w3.org/1999/xlink"><g id="_x31_"/><g id="_x32_"/><g id="_x33_"/><g id="_x34_"/><g id="_x35_"><path d="M49,80.3c-6.6,0-11.9-5.3-11.9-11.9S42.4,56.5,49,56.5s11.9,5.3,11.9,11.9S55.5,80.3,49,80.3z M49,59.5   c-4.9,0-8.9,4-8.9,8.9s4,8.9,8.9,8.9s8.9-4,8.9-8.9S53.9,59.5,49,59.5z M72.5,87.9h-47c-0.7,0-1.3-0.5-1.5-1.1l-10-38   c-0.1-0.4,0-0.9,0.3-1.3c0.3-0.4,0.7-0.6,1.2-0.6h67c0.5,0,0.9,0.2,1.2,0.6c0.3,0.4,0.4,0.8,0.3,1.3l-10,38   C73.7,87.5,73.2,87.9,72.5,87.9z M26.6,84.9h44.7l9.2-35H17.4l0.4,1.4L26.6,84.9z M16.3,53.2c-0.6,0-1.1-0.3-1.4-0.9   c-4.8-10.1-0.4-22.3,9.8-27.2c5.3-2.6,11.3-2.8,16.6-0.7c1.3-1.4,2.9-2.6,4.7-3.5c3.7-1.8,7.9-2.1,11.8-0.7   c3.9,1.3,7.1,4.1,8.9,7.8c1.8,3.7,2,7.9,0.7,11.8c-1.4,3.9-4.2,7-7.9,8.9c0,0,0,0,0,0c-1.1,0.5-2.3,0.9-3.5,1.2c-0.1,0-0.2,0-0.3,0   H17.4l0.4,1.4c0.2,0.8-0.2,1.5-0.9,1.8C16.7,53.1,16.5,53.2,16.3,53.2z M16.3,46.9h39.1c0.9-0.2,1.8-0.5,2.7-0.9   c3-1.5,5.3-4,6.4-7.2c1.1-3.1,0.9-6.5-0.5-9.5c-1.4-3-4-5.2-7.1-6.3c-3.2-1.1-6.6-0.9-9.6,0.6c-1.7,0.8-3.2,2-4.4,3.5   c-0.4,0.5-1.2,0.7-1.8,0.4c-4.8-2.2-10.3-2.1-15.1,0.2C18.7,31.3,14.9,39.3,16.3,46.9z M66.8,33.2c-0.2,0-0.3,0-0.5-0.1   c-0.4-0.1-0.7-0.4-0.9-0.8l-3.3-6.9c-0.4-0.7-0.1-1.6,0.7-2l9.5-4.6c-0.2-1-0.1-1.9,0.2-2.9c0.5-1.4,1.5-2.6,2.9-3.2l0.7,1.3   l-0.7-1.3c1.4-0.7,2.9-0.8,4.3-0.3c1.4,0.5,2.6,1.5,3.2,2.9c0.6,1.3,0.7,2.7,0.3,4.1c1.3,0.5,2.4,1.5,3,2.8   c1.4,2.8,0.2,6.2-2.6,7.6c-1.4,0.7-2.9,0.8-4.3,0.3c-0.9-0.3-1.8-0.9-2.4-1.6L67.5,33C67.3,33.1,67,33.2,66.8,33.2z M65.5,25.5   l2,4.2l9.4-4.5c0.4-0.2,0.8-0.2,1.1-0.1c0.4,0.1,0.7,0.4,0.9,0.8c0.3,0.6,0.9,1.1,1.5,1.4c0.7,0.2,1.4,0.2,2-0.1   c1.3-0.6,1.9-2.2,1.2-3.6c-0.4-0.7-1-1.3-1.8-1.4C81.6,22,81.4,22,81.1,22c-0.6,0-1.2-0.3-1.4-0.8c-0.3-0.5-0.2-1.2,0.2-1.6   c0.2-0.2,0.3-0.4,0.4-0.6c0.4-0.7,0.4-1.6,0-2.3c-0.3-0.6-0.9-1.1-1.5-1.4c-0.7-0.2-1.4-0.2-2,0.1l0,0c-0.6,0.3-1.1,0.9-1.4,1.5   s-0.2,1.4,0.1,2c0.2,0.4,0.2,0.8,0.1,1.1c-0.1,0.4-0.4,0.7-0.8,0.9L65.5,25.5z M29.2,37.3c0,0,2.7-2.9,7.5-2.7c0,0,0,0,0,0   c0.8,0,1.5-0.6,1.5-1.5c0-0.8-0.6-1.5-1.5-1.5c-6.1-0.2-9.6,3.5-9.8,3.7c-0.6,0.6-0.5,1.6,0.1,2.1c0.3,0.3,0.7,0.4,1,0.4   C28.5,37.8,28.9,37.6,29.2,37.3z"/></g><g id="_x36_"/><g id="_x37_"/><g id="_x38_"/><g id="_x39_"/><g id="_x31_0"/><g id="_x31_1"/><g id="_x31_2"/><g id="_x31_3"/><g id="_x31_4"/><g id="_x31_5"/><g id="_x31_6"/><g id="_x31_7"/><g id="_x31_8"/><g id="_x31_9"/><g id="_x32_0"/><g id="_x32_1"/><g id="_x32_2"/><g id="_x32_3"/><g id="_x32_4"/></svg>