<?xml version="1.0" ?><!DOCTYPE svg  PUBLIC '-//W3C//DTD SVG 1.1//EN'  'http://www.w3.org/Graphics/SVG/1.1/DTD/svg11.dtd'><svg enable-background="new 0 0 36.305 38.749" height="38.749px" id="Layer_1" version="1.1" viewBox="0 0 36.305 38.749" width="36.305px" xml:space="preserve" xmlns="http://www.w3.org/2000/svg" xmlns:xlink="http://www.w3.org/1999/xlink"><g><g><path d="M35.439,38.749c-0.013,0-0.025,0-0.037-0.001c-0.824-0.041-1.645-0.089-2.462-0.137c-1.72-0.1-3.498-0.204-5.235-0.237    l-4.425-0.092c-6.025-0.128-12.255-0.262-18.378-0.19c-1.803,0.021-2.891-0.28-3.604-1.014c-0.697-0.717-0.977-1.805-0.906-3.526    c0.038-0.936,0.088-1.875,0.137-2.816c0.218-4.143,0.441-8.426-0.271-12.425c-0.772-4.35,0.166-7.956,3.044-11.694    c1.466-1.908,3.242-2.102,5.593-2.167c5.447-0.154,9.173,2.062,11.767,6.964l0.357,0.649c0.121,0.222,0.122,0.489,0.004,0.712    c-0.066,0.124-0.164,0.225-0.281,0.293l0.208,2.646c0.009,0.121-0.011,0.243-0.059,0.355c-0.34,0.79-0.72,1.541-1.087,2.268    c-0.75,1.48-1.458,2.879-1.637,4.278c-0.413,3.257-0.521,6.628-0.624,9.889c-0.044,1.38-0.087,2.76-0.153,4.138    c0,0.008-0.001,0.016-0.001,0.023c1.988,0.035,3.966,0.077,5.922,0.119l4.423,0.091c1.766,0.034,3.559,0.139,5.293,0.24    c0.552,0.032,1.104,0.064,1.659,0.095c-0.007-1.1-0.027-2.156-0.048-3.181c-0.054-2.747-0.104-5.341,0.13-7.891    c0.303-3.272-1.361-5.354-3.204-7.117c-0.299-0.286-0.31-0.761-0.023-1.061c0.287-0.301,0.761-0.309,1.061-0.023    c2.013,1.926,4.022,4.422,3.661,8.339c-0.228,2.466-0.177,5.02-0.124,7.724c0.024,1.276,0.051,2.604,0.051,4    c0,0.205-0.084,0.401-0.233,0.543C35.816,38.676,35.632,38.749,35.439,38.749z M8.427,36.572c2.489,0,4.983,0.026,7.466,0.066    c-0.001-0.023-0.001-0.047,0-0.07c0.065-1.369,0.108-2.741,0.152-4.113c0.104-3.295,0.213-6.702,0.635-10.03    c0.212-1.656,0.977-3.167,1.786-4.767c0.331-0.652,0.671-1.325,0.974-2.014l-0.244-3.12c-0.013-0.168,0.03-0.327,0.114-0.46    C16.982,7.699,13.78,5.793,8.937,5.949C6.883,6.006,5.56,6.141,4.492,7.53c-2.634,3.422-3.458,6.567-2.757,10.518    c0.743,4.168,0.514,8.539,0.292,12.766c-0.049,0.937-0.098,1.87-0.137,2.8c-0.051,1.259,0.103,2.027,0.483,2.419    c0.392,0.403,1.175,0.577,2.511,0.56C6.063,36.578,7.244,36.572,8.427,36.572z"/></g><g><path d="M11.942,37.354c-0.414,0-0.75-0.336-0.75-0.75c0-0.875,0.004-1.75,0.008-2.626c0.008-1.918,0.017-3.836-0.016-5.753    c-0.058-3.398-0.142-6.797-0.226-10.194l-0.103-4.235c-0.01-0.414,0.318-0.758,0.732-0.768c0.431,0.036,0.758,0.318,0.768,0.732    l0.103,4.233c0.084,3.402,0.168,6.804,0.226,10.206c0.032,1.928,0.023,3.856,0.016,5.785c-0.004,0.873-0.008,1.746-0.008,2.619    C12.692,37.019,12.356,37.354,11.942,37.354z"/></g><g><path d="M15.637,6.808c-0.061,0-0.121-0.007-0.183-0.022c-0.401-0.1-0.646-0.507-0.546-0.909l0.801-3.202L5.938,1.597l0.37,3.372    c0.046,0.412-0.252,0.782-0.663,0.827c-0.421,0.06-0.782-0.251-0.827-0.663L4.346,0.831C4.32,0.604,4.399,0.38,4.561,0.219    S4.951-0.02,5.173,0.004l11.554,1.273c0.216,0.023,0.41,0.139,0.534,0.316c0.123,0.179,0.164,0.4,0.111,0.61l-1.009,4.035    C16.278,6.58,15.973,6.808,15.637,6.808z"/></g><g><path d="M28.601,24.599H17.984c-0.414,0-0.75-0.336-0.75-0.75s0.336-0.75,0.75-0.75h10.107l3.53-8.883    c-2.222-1.313-4.515-1.167-6.932-1.017c-1.356,0.086-2.759,0.174-4.126-0.022c-0.41-0.059-0.695-0.438-0.636-0.849    c0.059-0.41,0.431-0.704,0.849-0.636c1.216,0.175,2.479,0.094,3.819,0.01c2.736-0.169,5.574-0.352,8.379,1.603    c0.286,0.199,0.397,0.569,0.269,0.893l-3.946,9.929C29.184,24.411,28.908,24.599,28.601,24.599z"/></g><g><path d="M28.056,37.69c-0.405,0-0.739-0.322-0.75-0.729L26.97,24.542c-0.011-0.414,0.315-0.759,0.729-0.771    c0.432,0.026,0.76,0.315,0.771,0.729l0.336,12.419c0.011,0.414-0.315,0.759-0.729,0.771C28.069,37.69,28.063,37.69,28.056,37.69z"/></g><g><path d="M31.078,17.214c-0.017,0-0.033-0.001-0.05-0.002L20.623,16.54c-0.414-0.026-0.728-0.383-0.7-0.796    c0.026-0.414,0.415-0.718,0.796-0.7l10.407,0.672c0.413,0.026,0.727,0.383,0.699,0.797C31.8,16.909,31.47,17.214,31.078,17.214z"/></g><g><path d="M9.742,14.239c-0.724,0-1.515-0.124-2.382-0.372c-1.296-0.371-2.632-0.555-4.047-0.748    c-0.635-0.088-1.271-0.175-1.9-0.279c-0.408-0.068-0.685-0.455-0.617-0.863c0.068-0.409,0.452-0.686,0.863-0.617    c0.616,0.103,1.237,0.188,1.858,0.273c1.404,0.192,2.857,0.393,4.255,0.793c1.577,0.449,2.787,0.416,3.701-0.107    c0.962-0.547,1.655-1.667,2.118-3.425c0.146-0.545,0.465-1.001,0.746-1.403c0.11-0.157,0.222-0.315,0.319-0.478    c0.212-0.354,0.672-0.472,1.029-0.256c0.354,0.213,0.47,0.674,0.256,1.029c-0.114,0.19-0.245,0.378-0.376,0.564    c-0.23,0.33-0.448,0.641-0.524,0.928c-0.571,2.165-1.495,3.587-2.826,4.344C11.493,14.034,10.674,14.239,9.742,14.239z"/></g></g></svg>